<mxfile host="app.diagrams.net" modified="2021-05-04T17:40:16.298Z" agent="5.0 (Windows)" etag="BUynsAaWt_Sov7RUmDY9" version="14.6.3" type="github">
  <diagram id="C5RBs43oDa-KdzZeNtuy" name="Page-1">
    <mxGraphModel dx="1422" dy="831" grid="1" gridSize="10" guides="1" tooltips="1" connect="1" arrows="1" fold="1" page="1" pageScale="1" pageWidth="827" pageHeight="1169" math="0" shadow="0">
      <root>
        <mxCell id="WIyWlLk6GJQsqaUBKTNV-0" />
        <mxCell id="WIyWlLk6GJQsqaUBKTNV-1" parent="WIyWlLk6GJQsqaUBKTNV-0" />
        <mxCell id="zkfFHV4jXpPFQw0GAbJ--17" value="Data" style="swimlane;fontStyle=0;align=center;verticalAlign=top;childLayout=stackLayout;horizontal=1;startSize=30;horizontalStack=0;resizeParent=1;resizeLast=0;collapsible=1;marginBottom=0;rounded=0;shadow=0;strokeWidth=1;" parent="WIyWlLk6GJQsqaUBKTNV-1" vertex="1">
          <mxGeometry x="500" y="110" width="150" height="60" as="geometry">
            <mxRectangle x="508" y="120" width="160" height="26" as="alternateBounds" />
          </mxGeometry>
        </mxCell>
        <mxCell id="nnp9wkORnbhGDusjU4oN-42" value="settings.csv&#xa;" style="text;align=left;verticalAlign=top;spacingLeft=4;spacingRight=4;overflow=hidden;rotatable=0;points=[[0,0.5],[1,0.5]];portConstraint=eastwest;" vertex="1" parent="zkfFHV4jXpPFQw0GAbJ--17">
          <mxGeometry y="30" width="150" height="24" as="geometry" />
        </mxCell>
        <mxCell id="nnp9wkORnbhGDusjU4oN-43" style="edgeStyle=orthogonalEdgeStyle;rounded=0;orthogonalLoop=1;jettySize=auto;html=1;exitX=0.5;exitY=1;exitDx=0;exitDy=0;entryX=0.25;entryY=0;entryDx=0;entryDy=0;dashed=1;" edge="1" parent="WIyWlLk6GJQsqaUBKTNV-1" source="nnp9wkORnbhGDusjU4oN-2" target="nnp9wkORnbhGDusjU4oN-40">
          <mxGeometry relative="1" as="geometry" />
        </mxCell>
        <mxCell id="nnp9wkORnbhGDusjU4oN-2" value="ui" style="swimlane;fontStyle=0;align=center;verticalAlign=top;childLayout=stackLayout;horizontal=1;startSize=26;horizontalStack=0;resizeParent=1;resizeLast=0;collapsible=1;marginBottom=0;rounded=0;shadow=0;strokeWidth=1;" vertex="1" parent="WIyWlLk6GJQsqaUBKTNV-1">
          <mxGeometry x="110" y="230" width="150" height="130" as="geometry">
            <mxRectangle x="508" y="120" width="160" height="26" as="alternateBounds" />
          </mxGeometry>
        </mxCell>
        <mxCell id="nnp9wkORnbhGDusjU4oN-3" value="ui.py" style="text;align=left;verticalAlign=top;spacingLeft=4;spacingRight=4;overflow=hidden;rotatable=0;points=[[0,0.5],[1,0.5]];portConstraint=eastwest;" vertex="1" parent="nnp9wkORnbhGDusjU4oN-2">
          <mxGeometry y="26" width="150" height="24" as="geometry" />
        </mxCell>
        <mxCell id="nnp9wkORnbhGDusjU4oN-4" value="game_window.py" style="text;align=left;verticalAlign=top;spacingLeft=4;spacingRight=4;overflow=hidden;rotatable=0;points=[[0,0.5],[1,0.5]];portConstraint=eastwest;rounded=0;shadow=0;html=0;" vertex="1" parent="nnp9wkORnbhGDusjU4oN-2">
          <mxGeometry y="50" width="150" height="26" as="geometry" />
        </mxCell>
        <mxCell id="nnp9wkORnbhGDusjU4oN-5" value="game_over_window.py" style="text;align=left;verticalAlign=top;spacingLeft=4;spacingRight=4;overflow=hidden;rotatable=0;points=[[0,0.5],[1,0.5]];portConstraint=eastwest;rounded=0;shadow=0;html=0;" vertex="1" parent="nnp9wkORnbhGDusjU4oN-2">
          <mxGeometry y="76" width="150" height="26" as="geometry" />
        </mxCell>
        <mxCell id="nnp9wkORnbhGDusjU4oN-6" value="settings_popup.py" style="text;align=left;verticalAlign=top;spacingLeft=4;spacingRight=4;overflow=hidden;rotatable=0;points=[[0,0.5],[1,0.5]];portConstraint=eastwest;rounded=0;shadow=0;html=0;" vertex="1" parent="nnp9wkORnbhGDusjU4oN-2">
          <mxGeometry y="102" width="150" height="26" as="geometry" />
        </mxCell>
        <mxCell id="nnp9wkORnbhGDusjU4oN-28" style="edgeStyle=orthogonalEdgeStyle;rounded=0;orthogonalLoop=1;jettySize=auto;html=1;exitX=0.5;exitY=1;exitDx=0;exitDy=0;entryX=0.5;entryY=0;entryDx=0;entryDy=0;dashed=1;" edge="1" parent="WIyWlLk6GJQsqaUBKTNV-1" source="nnp9wkORnbhGDusjU4oN-13" target="nnp9wkORnbhGDusjU4oN-2">
          <mxGeometry relative="1" as="geometry" />
        </mxCell>
        <mxCell id="nnp9wkORnbhGDusjU4oN-13" value="src" style="swimlane;fontStyle=0;align=center;verticalAlign=top;childLayout=stackLayout;horizontal=1;startSize=26;horizontalStack=0;resizeParent=1;resizeLast=0;collapsible=1;marginBottom=0;rounded=0;shadow=0;strokeWidth=1;" vertex="1" parent="WIyWlLk6GJQsqaUBKTNV-1">
          <mxGeometry x="110" y="90" width="150" height="80" as="geometry">
            <mxRectangle x="508" y="120" width="160" height="26" as="alternateBounds" />
          </mxGeometry>
        </mxCell>
        <mxCell id="nnp9wkORnbhGDusjU4oN-14" value="root.py" style="text;align=left;verticalAlign=top;spacingLeft=4;spacingRight=4;overflow=hidden;rotatable=0;points=[[0,0.5],[1,0.5]];portConstraint=eastwest;" vertex="1" parent="nnp9wkORnbhGDusjU4oN-13">
          <mxGeometry y="26" width="150" height="24" as="geometry" />
        </mxCell>
        <mxCell id="nnp9wkORnbhGDusjU4oN-15" value="config.py" style="text;align=left;verticalAlign=top;spacingLeft=4;spacingRight=4;overflow=hidden;rotatable=0;points=[[0,0.5],[1,0.5]];portConstraint=eastwest;rounded=0;shadow=0;html=0;" vertex="1" parent="nnp9wkORnbhGDusjU4oN-13">
          <mxGeometry y="50" width="150" height="26" as="geometry" />
        </mxCell>
        <mxCell id="nnp9wkORnbhGDusjU4oN-29" value="logic" style="swimlane;fontStyle=0;align=center;verticalAlign=top;childLayout=stackLayout;horizontal=1;startSize=26;horizontalStack=0;resizeParent=1;resizeLast=0;collapsible=1;marginBottom=0;rounded=0;shadow=0;strokeWidth=1;" vertex="1" parent="WIyWlLk6GJQsqaUBKTNV-1">
          <mxGeometry x="370" y="230" width="160" height="102" as="geometry">
            <mxRectangle x="508" y="120" width="160" height="26" as="alternateBounds" />
          </mxGeometry>
        </mxCell>
        <mxCell id="nnp9wkORnbhGDusjU4oN-30" value="gridlogic.py" style="text;align=left;verticalAlign=top;spacingLeft=4;spacingRight=4;overflow=hidden;rotatable=0;points=[[0,0.5],[1,0.5]];portConstraint=eastwest;" vertex="1" parent="nnp9wkORnbhGDusjU4oN-29">
          <mxGeometry y="26" width="160" height="24" as="geometry" />
        </mxCell>
        <mxCell id="nnp9wkORnbhGDusjU4oN-31" value="settings.py" style="text;align=left;verticalAlign=top;spacingLeft=4;spacingRight=4;overflow=hidden;rotatable=0;points=[[0,0.5],[1,0.5]];portConstraint=eastwest;rounded=0;shadow=0;html=0;" vertex="1" parent="nnp9wkORnbhGDusjU4oN-29">
          <mxGeometry y="50" width="160" height="26" as="geometry" />
        </mxCell>
        <mxCell id="nnp9wkORnbhGDusjU4oN-32" value="square.py" style="text;align=left;verticalAlign=top;spacingLeft=4;spacingRight=4;overflow=hidden;rotatable=0;points=[[0,0.5],[1,0.5]];portConstraint=eastwest;rounded=0;shadow=0;html=0;" vertex="1" parent="nnp9wkORnbhGDusjU4oN-29">
          <mxGeometry y="76" width="160" height="26" as="geometry" />
        </mxCell>
        <mxCell id="nnp9wkORnbhGDusjU4oN-36" style="edgeStyle=orthogonalEdgeStyle;rounded=0;orthogonalLoop=1;jettySize=auto;html=1;exitX=1;exitY=0.5;exitDx=0;exitDy=0;entryX=0;entryY=0.5;entryDx=0;entryDy=0;dashed=1;" edge="1" parent="WIyWlLk6GJQsqaUBKTNV-1" source="nnp9wkORnbhGDusjU4oN-5" target="nnp9wkORnbhGDusjU4oN-30">
          <mxGeometry relative="1" as="geometry" />
        </mxCell>
        <mxCell id="nnp9wkORnbhGDusjU4oN-39" style="edgeStyle=orthogonalEdgeStyle;rounded=0;orthogonalLoop=1;jettySize=auto;html=1;exitX=1;exitY=0.5;exitDx=0;exitDy=0;dashed=1;entryX=0.5;entryY=1;entryDx=0;entryDy=0;" edge="1" parent="WIyWlLk6GJQsqaUBKTNV-1" source="nnp9wkORnbhGDusjU4oN-31" target="zkfFHV4jXpPFQw0GAbJ--17">
          <mxGeometry relative="1" as="geometry">
            <mxPoint x="580" y="180" as="targetPoint" />
          </mxGeometry>
        </mxCell>
        <mxCell id="nnp9wkORnbhGDusjU4oN-40" value="Images" style="swimlane;fontStyle=0;align=center;verticalAlign=top;childLayout=stackLayout;horizontal=1;startSize=0;horizontalStack=0;resizeParent=1;resizeLast=0;collapsible=1;marginBottom=0;rounded=0;shadow=0;strokeWidth=1;" vertex="1" parent="WIyWlLk6GJQsqaUBKTNV-1">
          <mxGeometry x="120" y="450" width="150" height="30" as="geometry">
            <mxRectangle x="508" y="120" width="160" height="26" as="alternateBounds" />
          </mxGeometry>
        </mxCell>
      </root>
    </mxGraphModel>
  </diagram>
</mxfile>
